<svg width="1096" height="600" xmlns="http://www.w3.org/2000/svg" version="1.1">
 <title>Pipes2</title>
 <g>
  <title>Layer 1</title>
  <g id="svg_19">
   <path class="st2" d="m16.02421,165.00865c-6.886,0 -12.69606,-5.58531 -12.69606,-12.67436l0,-113.42477c0,-6.87423 5.59487,-12.67436 12.69606,-12.67436l384.10955,0l0.64556,-0.21482l0,138.77349l-384.75511,0l0,0.21482z" fill=" rgb(139, 139, 139)" id="svg_1"/>
   <path d="m423.39994,164.09426l0,-138.98835l-26.89843,-6.65941l0,152.52197l26.89843,-6.87421z" class="st1" fill=" rgb(113, 113, 113)" id="svg_2"/>
   <path class="st1" d="m235.11092,170.96847l0,-152.52195c-7.74675,0 -13.98719,6.22977 -13.98719,13.96328l0,124.81021c0,7.51869 6.24044,13.74846 13.98719,13.74846z" fill=" rgb(113, 113, 113)" id="svg_3"/>
   <path class="st2" d="m244.14879,170.96847c0,0 0,-0.21482 0,-0.21482l0,-152.09231c0,0 0,-0.21482 0,-0.21482l-9.03788,0l0,152.52195l9.03788,0z" fill=" rgb(139, 139, 139)" id="svg_4"/>
   <path class="st2" d="m305.69239,170.75365c0,0 0,0.21482 0,0.21482l90.80909,0l0,-152.52195l-0.64556,-0.21482l-90.16353,0c0,0 0,0.21482 0,0.21482l0,152.30713z" fill=" rgb(139, 139, 139)" id="svg_5"/>
   <path class="st1" d="m244.14879,170.96847c0.21519,8.59279 7.10119,15.46701 15.70868,15.46701l0,-15.46701l0,-152.52195l0,-15.46701c-8.6075,0 -15.70868,6.87423 -15.70868,15.46701c0,0 0,0.21482 0,0.21482l0,152.09231c0,0 0,0 0,0.21482z" fill=" rgb(113, 113, 113)" id="svg_6"/>
   <path class="st1" d="m305.69239,170.96847c0,0 0,-0.21482 0,-0.21482l0,-152.09231c0,0 0,-0.21482 0,-0.21482c-0.21519,-8.59279 -7.10119,-15.46701 -15.70868,-15.46701l0,15.46701l0,152.52195l0,15.46701c8.6075,0 15.70868,-6.87423 15.70868,-15.46701z" fill=" rgb(113, 113, 113)" id="svg_7"/>
   <path d="m289.98374,186.43548l0,-15.46701l0,-152.52197l0,-15.68181l-29.91109,0l0,15.68181l0,152.52197l0,15.46701l29.91109,0z" class="st2" fill=" rgb(139, 139, 139)" id="svg_8"/>
   <path class="st2" d="m496.56364,164.09424l-39.59448,39.74163l-0.43038,0.21482l98.34065,98.17258l137.50476,-138.12903l115.77083,0c6.886,0 12.69606,-5.58531 12.69606,-12.67436l0,-113.42477c0,-6.87423 -5.59487,-12.67436 -12.69606,-12.67436l-384.10955,0l-0.64556,-0.21482l0,138.77349l73.16372,0l0,0.21482z" fill=" rgb(139, 139, 139)" id="svg_9"/>
   <path class="st2" d="m174.01427,489.1159c-4.87531,4.85464 -5.03771,12.90517 -0.0228,17.92425l80.23872,80.30523c4.86295,4.86698 12.92726,5.0291 17.95494,0.02276l271.95123,-270.79798l0.60903,-0.30303l-98.17086,-98.25224l-272.40829,271.25311l-0.15197,-0.15209l0,-0.00001z" fill=" rgb(139, 139, 139)" id="svg_10"/>
   <path class="st1" d="m426.62772,439.92267l-108.02408,-107.83946c-5.37968,5.37049 -5.37968,14.1781 0,19.54859l88.44203,88.29087c5.37968,5.37049 14.20237,5.37049 19.58206,0z" fill=" rgb(113, 113, 113)" id="svg_11"/>
   <path class="st2" d="m433.08335,433.47808c0,0 -0.21519,0 0,0l-107.80889,-107.62464c0,0 0,-0.21482 -0.21519,-0.21482l-6.45562,6.44459l108.02408,107.83946l6.45562,-6.44459z" fill=" rgb(139, 139, 139)" id="svg_12"/>
   <path class="st2" d="m476.55121,389.86969c0,0.21482 0,0.21482 0,0l64.34103,-63.80143l-108.02408,-107.83946l-0.43038,0.21482l-63.91066,63.80143c0,0 0.21519,0 0.21519,0.21482l107.80889,107.40982z" fill=" rgb(139, 139, 139)" id="svg_13"/>
   <path class="st1" d="m433.08335,433.47808c6.24044,6.01495 16.13905,6.01495 22.1643,-0.21482l-10.97456,-10.9558l-108.02408,-107.83946l-10.97456,-10.9558c-6.02525,6.01495 -6.24044,15.89665 -0.21519,22.12642c0,0 0,0.21482 0.21519,0.21482l107.80889,107.62464c-0.21519,0 0,0 0,0z" fill=" rgb(113, 113, 113)" id="svg_14"/>
   <path class="st1" d="m476.55121,390.08451c0,0 0,0 0,0l-107.80889,-107.83946c0,0 -0.21519,0 -0.21519,-0.21482c-6.24044,-6.01495 -16.13905,-6.01495 -22.1643,0.21482l10.97456,10.9558l108.02408,108.05428l10.97456,10.9558c6.24044,-6.01495 6.24044,-15.89665 0.21519,-22.12642z" fill=" rgb(113, 113, 113)" id="svg_15"/>
   <path d="m476.55125,412.21093l-11.18976,-10.9558l-108.0241,-107.83946l-10.97452,-10.9558l-21.08845,21.05233l10.97463,10.95582l108.0241,108.05426l10.97452,10.9558l21.3036,-21.26714l-0.00001,-0.00001z" class="st2" fill=" rgb(139, 139, 139)" id="svg_16"/>
   <path class="st2" d="m1079.56262,164.18913c6.886,0 12.69606,-5.58531 12.69606,-12.67436l0,-113.42477c0,-6.87423 -5.59487,-12.67436 -12.69606,-12.67436l-384.10955,0l-0.64556,-0.21482l0,138.77349l384.75511,0l0,0.21482z" fill=" rgb(139, 139, 139)" id="svg_17"/>
   <path d="m554.87941,302.22325l-98.34067,-98.17256l-23.67062,14.1781l108.0241,107.83946l13.98719,-23.845z" class="st1" fill=" rgb(113, 113, 113)" id="svg_18"/>
  </g>
 </g>

</svg>