<svg width="1096" height="600" xmlns="http://www.w3.org/2000/svg" version="1.1">
 <title>Pipes</title>

 <g>
  <title>Layer 1</title>
  <g transform="rotate(-180, 545.794, 296.912)" id="svg_19">
   <path id="svg_1" fill=" rgb(139, 139, 139)" d="m1076.6542,165.00865c6.87423,0 12.67436,-5.58531 12.67436,-12.67436l0,-113.42477c0,-6.87423 -5.58531,-12.67436 -12.67436,-12.67436l-383.45307,0l-0.64446,-0.21482l0,138.77349l384.09753,0l0,0.21482z" class="st2"/>
   <path id="svg_2" fill=" rgb(113, 113, 113)" class="st1" d="m669.97471,164.09426l0,-138.98835l26.85246,-6.65941l0,152.52197l-26.85246,-6.87421z"/>
   <path id="svg_3" fill=" rgb(113, 113, 113)" d="m857.94192,170.96847l0,-152.52195c7.73351,0 13.96328,6.22977 13.96328,13.96328l0,124.81021c0,7.51869 -6.22977,13.74846 -13.96328,13.74846z" class="st1"/>
   <path id="svg_4" fill=" rgb(139, 139, 139)" d="m848.9195,170.96847c0,0 0,-0.21482 0,-0.21482l0,-152.09231c0,0 0,-0.21482 0,-0.21482l9.02243,0l0,152.52195l-9.02243,0z" class="st2"/>
   <path id="svg_5" fill=" rgb(139, 139, 139)" d="m787.48108,170.75365c0,0 0,0.21482 0,0.21482l-90.65389,0l0,-152.52195l0.64446,-0.21482l90.00943,0c0,0 0,0.21482 0,0.21482l0,152.30713z" class="st2"/>
   <path id="svg_6" fill=" rgb(113, 113, 113)" d="m848.9195,170.96847c-0.21482,8.59279 -7.08905,15.46701 -15.68183,15.46701l0,-15.46701l0,-152.52195l0,-15.46701c8.59279,0 15.68183,6.87423 15.68183,15.46701c0,0 0,0.21482 0,0.21482l0,152.09231c0,0 0,0 0,0.21482z" class="st1"/>
   <path id="svg_7" fill=" rgb(113, 113, 113)" d="m787.48108,170.96847c0,0 0,-0.21482 0,-0.21482l0,-152.09231c0,0 0,-0.21482 0,-0.21482c0.21482,-8.59279 7.08905,-15.46701 15.68183,-15.46701l0,15.46701l0,152.52195l0,15.46701c-8.59279,0 -15.68183,-6.87423 -15.68183,-15.46701z" class="st1"/>
   <path id="svg_8" fill=" rgb(139, 139, 139)" class="st2" d="m803.16289,186.43548l0,-15.46701l0,-152.52197l0,-15.68181l29.85997,0l0,15.68181l0,152.52197l0,15.46701l-29.85997,0z"/>
   <path id="svg_9" fill=" rgb(139, 139, 139)" d="m596.93605,164.09424l39.52681,39.74163l0.42964,0.21482l-98.17258,98.17258l-137.26975,-138.12903l-115.57297,0c-6.87423,0 -12.67436,-5.58531 -12.67436,-12.67436l0,-113.42477c0,-6.87423 5.58531,-12.67436 12.67436,-12.67436l383.45307,0l0.64446,-0.21482l0,138.77349l-73.03868,0l0,0.21482z" class="st2"/>
   <path id="svg_10" fill=" rgb(139, 139, 139)" d="m918.93415,489.1159c4.86698,4.85464 5.0291,12.90517 0.02276,17.92425l-80.10159,80.30523c-4.85464,4.86698 -12.90517,5.0291 -17.92425,0.02276l-271.48644,-270.79798l-0.60799,-0.30303l98.00308,-98.25224l271.94272,271.25311l0.15171,-0.15209z" class="st2"/>
   <path id="svg_11" fill=" rgb(113, 113, 113)" d="m666.75244,439.92267l107.83946,-107.83946c5.37049,5.37049 5.37049,14.1781 0,19.54859l-88.29087,88.29087c-5.37049,5.37049 -14.1781,5.37049 -19.54859,0z" class="st1"/>
   <path id="svg_12" fill=" rgb(139, 139, 139)" d="m660.30785,433.47808c0,0 0.21482,0 0,0l107.62464,-107.62464c0,0 0,-0.21482 0.21482,-0.21482l6.44459,6.44459l-107.83946,107.83946l-6.44459,-6.44459z" class="st2"/>
   <path id="svg_13" fill=" rgb(139, 139, 139)" d="m616.91428,389.86969c0,0.21482 0,0.21482 0,0l-64.23107,-63.80143l107.83946,-107.83946l0.42964,0.21482l63.80143,63.80143c0,0 -0.21482,0 -0.21482,0.21482l-107.62464,107.40982z" class="st2"/>
   <path id="svg_14" fill=" rgb(113, 113, 113)" d="m660.30785,433.47808c-6.22977,6.01495 -16.11147,6.01495 -22.12642,-0.21482l10.9558,-10.9558l107.83946,-107.83946l10.9558,-10.9558c6.01495,6.01495 6.22977,15.89665 0.21482,22.12642c0,0 0,0.21482 -0.21482,0.21482l-107.62464,107.62464c0.21482,0 0,0 0,0z" class="st1"/>
   <path id="svg_15" fill=" rgb(113, 113, 113)" d="m616.91428,390.08451c0,0 0,0 0,0l107.62464,-107.83946c0,0 0.21482,0 0.21482,-0.21482c6.22977,-6.01495 16.11147,-6.01495 22.12642,0.21482l-10.9558,10.9558l-107.83946,108.05428l-10.9558,10.9558c-6.22977,-6.01495 -6.22977,-15.89665 -0.21482,-22.12642z" class="st1"/>
   <path id="svg_16" fill=" rgb(139, 139, 139)" class="st2" d="m616.91424,412.21093l11.17064,-10.9558l107.83948,-107.83946l10.95576,-10.9558l21.05241,21.05233l-10.95587,10.95582l-107.83948,108.05426l-10.95576,10.9558l-21.26719,-21.26714z"/>
   <path id="svg_17" fill=" rgb(139, 139, 139)" d="m14.93346,164.18913c-6.87423,0 -12.67436,-5.58531 -12.67436,-12.67436l0,-113.42477c0,-6.87423 5.58531,-12.67436 12.67436,-12.67436l383.45307,0l0.64446,-0.21482l0,138.77349l-384.09753,0l0,0.21482z" class="st2"/>
   <path id="svg_18" fill=" rgb(113, 113, 113)" class="st1" d="m538.71995,302.22325l98.1726,-98.17256l23.63016,14.1781l-107.83948,107.83946l-13.96328,-23.845z"/>
  </g>
 </g>
</svg>